<svg xmlns="http://www.w3.org/2000/svg" xmlns:xlink="http://www.w3.org/1999/xlink" height="500" viewBox="0 0 800 500" width="800" xml:space="preserve">
  <defs>
    <style>
      .socialMedia:hover path {
        fill: #ff9e22;
        stroke: #2c366b;
      }
      .contact:hover circle,
      .contact:hover path {
        fill: #ff9e22;
        stroke: #df823a;
      }
      .contact:hover text {
        fill: #df823a;
      }
      svg a:hover{
        fill: #df823a;
        text-decoration: underline;
      }
    </style>
    <linearGradient id="a"><stop offset="0" stop-color="#03071b"/><stop offset="1" stop-color="#3a4273"/></linearGradient>
    <linearGradient id="b" gradientTransform="matrix(1 0 0 .537 0 157.274)" gradientUnits="userSpaceOnUse" x1="393.22" x2="393.22" y1="302.858" y2="634.634"><stop offset="0" stop-color="#5698cc"/><stop offset="1" stop-color="#4452ae"/></linearGradient><linearGradient id="c" gradientTransform="matrix(1.341 0 0 1.425 -1510.591 762.681)" gradientUnits="userSpaceOnUse" x1="1213.461" x2="1213.461" xlink:href="#a" y1="-259.972" y2="-523.339"/><linearGradient id="d" gradientTransform="matrix(.671 0 0 1.425 -755.295 762.681)" gradientUnits="userSpaceOnUse" x1="1213.461" x2="1213.461" xlink:href="#a" y1="-259.972" y2="-523.339"/>
  </defs>
  <path d="m0 0h800v500h-800z" fill="url(#c)" fill-rule="evenodd"/>
  <g transform="matrix(1.333 0 0 -1.333 -879.528 275.58)">
    <path d="m0 0 6.89-15.06 6.92 15.06h12.73v-23.2h-6.96l.17 17.36h-1.18l-8.73-17.36h-5.87l-8.73 17.36h-1.25l.17-17.36h-6.96v23.2z" fill="#fff" transform="matrix(.503 0 0 .503 689.37 15.427)"/>
    <path d="m0 0h-1.39l-4.49-8.8h10.37zm6.96-13.88h-15.34l-1.98-3.93h-8.07l12.28 23.2h10.98l12.14-23.2h-8.03z" fill="#fff" transform="matrix(.503 0 0 .503 712.498 12.716)"/>
    <path
      d="m0 0c.88.02 1.57.04 2.05.05.49.01.86.03 1.12.06.25.02.43.05.54.1.1.05.21.12.33.21.27.18.47.46.59.83.11.37.17.93.17 1.67 0 .79-.08 1.37-.23 1.74s-.41.64-.78.8c-.11.05-.23.09-.35.12-.11.04-.29.06-.54.07-.24.01-.59.03-1.04.04s-1.07.02-1.86.02h-9.95v-5.71zm-17.01 11.51h17.08c1.99 0 3.54-.01 4.64-.02s1.95-.05 2.54-.1c.59-.06 1.03-.14 1.32-.26s.62-.29.99-.52c.44-.28.81-.59 1.11-.94s.54-.78.71-1.29.3-1.13.37-1.84c.07-.72.11-1.58.11-2.57 0-.86-.02-1.6-.07-2.21-.04-.62-.13-1.14-.26-1.58-.13-.45-.29-.82-.5-1.12s-.47-.57-.77-.8c-.32-.25-.68-.45-1.08-.59-.39-.14-.94-.27-1.63-.38.9-.12 1.63-.28 2.17-.5s.96-.57 1.25-1.06.48-1.15.56-1.98.11-1.93.09-3.27v-2.16h-6.96v1.22c0 .65-.01 1.2-.04 1.65-.02.45-.06.83-.1 1.13-.05.3-.12.55-.21.75s-.21.37-.35.5c-.12.14-.25.25-.4.33s-.37.14-.64.19c-.28.05-.65.07-1.11.09-.46.01-1.06.02-1.77.02h-9.98v-5.88h-7.06z"
      fill="#fff"
      transform="matrix(.503 0 0 .503 730.115 9.636)"/>
    <path d="m741.03 3.76h-3.73v11.67h3.73z" fill="#fff"/>
    <path d="m0 0 12.14-17.29h.73l-.17 17.29h7.2v-23.2h-12.28l-12.21 17.29h-.77l.17-17.29h-7.2v23.2z" fill="#fff" transform="matrix(.503 0 0 .503 748.904 15.427)"/>
    <path d="m0 0v-5.46h-18.71v-3.37h17.77v-5.11h-17.77v-3.69h18.85v-5.56h-25.81v23.19z" fill="#fff" transform="matrix(.503 0 0 .503 773.45 15.427)"/>
    <path
      d="m0 0c-.53-.05-.95-.11-1.25-.19s-.54-.22-.71-.42-.28-.46-.33-.78c-.05-.33-.07-.75-.07-1.29 0-.72.04-1.27.12-1.67.08-.39.33-.68.75-.87s1.06-.3 1.93-.33c.86-.03 2.1-.05 3.7-.05l6.37.04c.3.02.53.04.68.07.15.02.33.08.54.17zm19.34 2.23c.02-.28.04-.5.04-.66v-.73c0-.67-.01-1.23-.02-1.67s-.03-.82-.05-1.13-.05-.58-.09-.8c-.03-.22-.09-.43-.16-.64l5.39-2.68-2.23-4.52-4.84 2.5c-.36-.54-.82-.97-1.38-1.31s-1.31-.6-2.26-.78c-.95-.19-2.15-.32-3.58-.4-1.44-.08-3.23-.12-5.39-.12-1.9 0-3.5.02-4.78.05-1.29.04-2.37.1-3.25.21-.88.1-1.59.24-2.14.42-.55.17-1.01.4-1.41.68s-.73.58-.99.92c-.27.34-.49.74-.66 1.22s-.3 1.03-.37 1.67-.1 1.39-.1 2.24c0 1.07.07 1.95.21 2.66.14.71.38 1.28.73 1.72s.83.78 1.46 1.01 1.43.42 2.4.56c-.44.16-.81.37-1.1.61s-.52.55-.7.92c-.17.37-.3.82-.37 1.34s-.1 1.15-.1 1.89c0 1.53.24 2.69.73 3.46.49.78 1.31 1.33 2.47 1.65.3.09.66.17 1.06.23.41.06.91.11 1.51.14.6.04 1.33.06 2.19.07s1.89.02 3.1.02c1.95 0 3.54-.01 4.76-.04 1.23-.02 2.23-.07 2.99-.14.77-.07 1.36-.17 1.77-.3.42-.13.8-.3 1.15-.5.7-.44 1.18-1.05 1.44-1.83.27-.78.4-1.93.4-3.46l-.02-1.35h-6.19c-.05.74-.1 1.25-.14 1.53-.05.28-.14.47-.28.59-.19.16-.61.27-1.27.33s-1.75.09-3.25.09c-1.67 0-2.91-.02-3.71-.06-.8-.03-1.29-.08-1.48-.15-.44-.16-.66-.55-.66-1.15 0-.37.09-.64.25-.82.16-.17.55-.41 1.18-.71l11.76-5.74.04.28.07 1.11v.52.49c0 .16-.02.35-.07.56z"
      fill="#fff"
      transform="matrix(.503 0 0 .503 783.159 9.024)"/>
    <path d="m803.68 3.76h-3.73v11.67h3.73z" fill="#fff"/>
    <path d="m0 0 12.14-17.29h.73l-.17 17.29h7.2v-23.2h-12.28l-12.21 17.29h-.77l.17-17.29h-7.2v23.2z" fill="#fff" transform="matrix(.503 0 0 .503 811.553 15.427)"/>
    <path
      d="m0 0c1.6 0 2.86.05 3.77.14.92.09 1.6.33 2.06.7.45.37.73.92.85 1.66.11.75.17 1.78.17 3.1 0 1.44-.07 2.52-.21 3.24s-.38 1.27-.73 1.66c-.18.21-.4.38-.64.51s-.58.22-1.01.3c-.43.07-.99.11-1.69.13-.69.03-1.57.04-2.64.04h-9.77v-11.48zm-16.8 17.29h16.73c1.48 0 2.68-.01 3.58-.02s1.65-.03 2.24-.05 1.1-.07 1.51-.14c.42-.07.87-.15 1.36-.24 2.32-.47 3.83-1.78 4.52-3.93.14-.42.25-.83.33-1.23.08-.41.14-.87.19-1.39s.08-1.13.1-1.81c.02-.69.04-1.5.04-2.45 0-1.51-.04-2.81-.1-3.9-.06-1.1-.19-2.02-.36-2.79s-.41-1.41-.7-1.93-.64-.98-1.06-1.38c-.44-.39-.93-.71-1.46-.97-.53-.25-1.23-.45-2.08-.59-.86-.14-1.94-.24-3.24-.3s-2.92-.08-4.87-.08h-16.73z"
      fill="#fff"
      transform="matrix(.503 0 0 .503 831.637 6.732)"/>
    <path
      d="m0 0v-10.68c.02-.9.04-1.61.05-2.12s.02-.91.04-1.2c.01-.29.03-.52.05-.7.02-.17.06-.38.11-.61.09-.46.27-.84.52-1.13.26-.29.67-.52 1.23-.68.57-.16 1.33-.27 2.3-.33.96-.06 2.19-.09 3.7-.09 1.21 0 2.22.02 3.04.05.82.04 1.5.09 2.04.16.53.07.96.17 1.27.31s.56.31.75.52c.14.14.26.3.35.47s.17.39.25.65c.07.25.12.56.16.92s.06.82.09 1.37c.02.39.04.83.05 1.31.01.47.02.84.02 1.1l-.02 10.68h7.06v-10.68c-.02-1.32-.05-2.37-.07-3.13-.02-.77-.05-1.38-.07-1.86s-.05-.87-.09-1.18-.08-.68-.12-1.1c-.19-1.32-.7-2.42-1.55-3.31-.85-.88-1.93-1.46-3.25-1.74-.54-.12-1.09-.21-1.67-.28s-1.25-.12-2-.16-1.63-.06-2.63-.09c-1-.02-2.17-.03-3.51-.03-2.23 0-4.09.03-5.6.1s-2.76.19-3.77.37c-1.01.17-1.82.41-2.43.71-.62.3-1.14.68-1.58 1.15-.28.3-.52.62-.71.96-.2.34-.37.74-.5 1.22-.14.48-.24 1.02-.31 1.64-.07.61-.13 1.35-.17 2.21-.02.25-.04.75-.04 1.5 0 .76-.01 1.77-.04 3.03v10.67z"
      fill="#fff"
      transform="matrix(.503 0 0 .503 843.463 15.427)"/>
    <path
      d="m0 0c0-.7.05-1.19.14-1.48s.28-.53.56-.71c.16-.12.35-.21.57-.26.22-.06.56-.11 1.01-.14.45-.04 1.05-.06 1.81-.07.75-.01 1.75-.02 3.01-.02 1.9 0 3.36.01 4.38.04 1.02.02 1.77.1 2.24.23s.75.33.83.61.12.67.12 1.18c0 .35-.04.63-.12.85s-.23.4-.43.54c-.21.14-.49.24-.85.3s-.82.09-1.37.09l-5.57.2-3.76.17-1.87.07c-1.69.04-3 .2-3.91.47-.92.27-1.63.7-2.14 1.31-.44.53-.77 1.18-.98 1.95s-.31 1.74-.31 2.92c0 3.39.81 5.53 2.43 6.44.44.23.93.43 1.48.59.54.16 1.26.28 2.16.37.89.08 2.02.14 3.39.17s3.1.05 5.18.05c1.67 0 3.09-.02 4.26-.07s2.17-.12 2.99-.23 1.51-.25 2.05-.44c.55-.19 1.02-.42 1.44-.7.7-.47 1.19-1.09 1.5-1.88.3-.79.45-1.88.45-3.27v-.41c0-.21-.01-.43-.03-.66h-6.82c-.02.6-.07 1.02-.14 1.24s-.21.41-.42.57c-.14.12-.31.21-.52.28s-.55.12-1.03.16-1.11.06-1.91.07-1.86.02-3.18.02c-1.49 0-2.66-.02-3.51-.05-.86-.05-1.5-.12-1.93-.24-.43-.11-.7-.3-.82-.55-.11-.26-.17-.6-.17-1.01 0-.84.35-1.34 1.04-1.5.16-.05.41-.09.75-.12s.8-.07 1.38-.1c.57-.04 1.3-.07 2.17-.11.87-.03 1.92-.06 3.15-.09 1.9-.06 3.46-.13 4.68-.19 1.21-.06 2.2-.13 2.95-.22.75-.1 1.35-.22 1.79-.37s.85-.34 1.22-.57c.79-.54 1.35-1.24 1.69-2.11s.5-2.12.5-3.74c0-2.02-.26-3.57-.78-4.64-.52-1.08-1.39-1.84-2.59-2.28-.35-.14-.8-.25-1.37-.33s-1.29-.15-2.17-.21-1.95-.1-3.2-.12-2.75-.03-4.49-.03c-1.81 0-3.36.02-4.64.07-1.29.05-2.38.12-3.29.23-.9.1-1.65.24-2.23.42-.58.17-1.08.39-1.5.64-.4.26-.73.54-1.01.85s-.5.68-.66 1.11-.28.93-.35 1.51-.1 1.27-.1 2.09v1.11z"
      fill="#fff"
      transform="matrix(.503 0 0 .503 859.681 7.624)"/>
    <path d="m0 0v-5.91h-10.33v-17.29h-7.41v17.29h-10.33v5.91z" fill="#fff" transform="matrix(.503 0 0 .503 885.188 15.427)"/>
    <path
      d="m0 0c.88.02 1.57.04 2.05.05.49.01.86.03 1.12.06.25.02.43.05.54.1.1.05.21.12.33.21.27.18.47.46.59.83.11.37.17.93.17 1.67 0 .79-.08 1.37-.23 1.74s-.41.64-.78.8c-.11.05-.23.09-.35.12-.11.04-.29.06-.54.07-.24.01-.59.03-1.04.04s-1.07.02-1.86.02h-9.95v-5.71zm-17.01 11.51h17.08c1.99 0 3.54-.01 4.64-.02s1.95-.05 2.54-.1c.59-.06 1.03-.14 1.32-.26s.62-.29.99-.52c.44-.28.81-.59 1.11-.94s.54-.78.71-1.29.3-1.13.37-1.84c.07-.72.1-1.58.1-2.57 0-.86-.02-1.6-.07-2.21-.04-.62-.12-1.14-.25-1.58-.13-.45-.3-.82-.5-1.12-.21-.3-.47-.57-.77-.8-.32-.25-.68-.45-1.08-.59-.39-.14-.94-.27-1.63-.38.9-.12 1.63-.28 2.17-.5.55-.22.96-.57 1.25-1.06s.47-1.15.56-1.98c.08-.83.11-1.93.09-3.27v-2.16h-6.96v1.22c0 .65-.01 1.2-.04 1.65-.02.45-.06.83-.11 1.13s-.12.55-.21.75-.21.37-.35.5c-.12.14-.25.25-.4.33s-.37.14-.64.19c-.28.05-.65.07-1.11.09-.46.01-1.06.02-1.77.02h-9.98v-5.88h-7.06z"
      fill="#fff"
      transform="matrix(.503 0 0 .503 894.565 9.636)"/>
    <path d="m905.48 3.76h-3.73v11.67h3.73z" fill="#fff"/>
    <path d="m0 0h-1.39l-4.49-8.8h10.37zm6.96-13.88h-15.34l-1.98-3.93h-8.07l12.28 23.2h10.98l12.14-23.2h-8.03z" fill="#fff" transform="matrix(.503 0 0 .503 915.279 12.716)"/>
    <path d="m0 0v-17.29h16.49v-5.91h-23.9v23.2z" fill="#fff" transform="matrix(.503 0 0 .503 928.068 15.427)"/>
    <path
      d="m1033.27 751.63c-1.57 0-2.85.22-3.91.56-.8.26-1.47.57-2.04.88-.87.46-1.54.85-2.31 1.12s-1.67.47-3.09.48c-1.26 0-2.12-.16-2.83-.39-.53-.17-1-.39-1.5-.65-.14-.07-.3-.16-.45-.24v3.93c.16.07.31.13.47.19 1.14.42 2.53.69 4.3.69 1.57 0 2.85-.22 3.91-.56.8-.26 1.46-.57 2.04-.88.87-.46 1.54-.85 2.31-1.12.77-.28 1.67-.48 3.09-.48 1.26 0 2.12.16 2.83.39.53.17 1 .39 1.5.65.75.38 1.59.89 2.73 1.31s2.53.69 4.3.69c1.57 0 2.85-.22 3.91-.56.8-.26 1.46-.57 2.04-.88.87-.46 1.54-.85 2.3-1.12.77-.28 1.67-.48 3.09-.48 1.26 0 2.12.16 2.83.39.53.17 1 .39 1.5.65.75.38 1.59.89 2.73 1.31s2.53.69 4.3.69c1.57 0 2.85-.22 3.91-.56.8-.26 1.46-.57 2.04-.88.88-.46 1.54-.85 2.31-1.12.64-.23 1.38-.4 2.43-.46 1.05.06 1.79.23 2.43.46.77.27 1.43.66 2.31 1.12.58.3 1.25.62 2.04.88 1.06.34 2.34.56 3.91.56 1.77 0 3.16-.27 4.3-.69 1.14-.41 1.98-.92 2.73-1.31.5-.26.96-.47 1.5-.65.71-.23 1.57-.39 2.83-.39 1.42 0 2.33.2 3.09.48.76.27 1.43.66 2.3 1.12.58.3 1.25.62 2.05.88 1.06.34 2.34.56 3.91.56 1.77 0 3.16-.27 4.3-.69 1.14-.41 1.98-.92 2.73-1.31.5-.26.96-.47 1.5-.65.71-.23 1.57-.39 2.83-.39.65 0 1.18.05 1.64.12v-3.56c-.51-.06-1.05-.1-1.64-.1-1.77 0-3.16.28-4.3.69-1.14.42-1.98.92-2.73 1.31-.5.26-.96.47-1.5.65-.71.23-1.57.39-2.83.39-1.42 0-2.33-.2-3.09-.48-.77-.28-1.43-.67-2.31-1.12-.58-.3-1.25-.62-2.04-.88-1.06-.34-2.33-.56-3.91-.56-1.77 0-3.16.28-4.3.69-1.14.42-1.98.92-2.73 1.31-.5.26-.96.47-1.5.65-.71.23-1.56.39-2.83.39-1.42 0-2.33-.2-3.09-.48-.77-.28-1.43-.67-2.31-1.12-.58-.3-1.25-.62-2.05-.88-.89-.29-1.94-.47-3.17-.53v-.01c-.03 0-.05.01-.08.01s-.05 0-.08-.01v.01c-1.23.06-2.29.25-3.17.53-.8.26-1.46.57-2.04.88-.88.46-1.54.85-2.31 1.12s-1.67.47-3.09.48c-1.26 0-2.12-.16-2.83-.39-.53-.17-1-.39-1.5-.65-.75-.38-1.59-.89-2.73-1.31-1.13-.42-2.53-.7-4.3-.69-1.57 0-2.85.22-3.91.56-.8.26-1.47.57-2.05.88-.87.46-1.54.85-2.3 1.12-.77.27-1.67.47-3.09.48-1.26 0-2.12-.16-2.83-.39-.53-.17-1-.39-1.5-.65-.75-.38-1.59-.89-2.73-1.31s-2.53-.7-4.3-.69zm-35.12 51.36c-.9 0-1.65.01-2.24.02s-1.08.04-1.46.07c-.38.04-.69.09-.93.16s-.45.16-.64.26c-.7.39-1.05 1.32-1.05 2.78 0 .51.04.93.13 1.26s.23.61.42.84c.22.26.53.45.92.56.4.12.96.18 1.69.2l.81.03 1.62.08 2.4.09c.24 0 .44.01.59.04s.28.07.37.13.15.14.19.23c.04.1.05.22.05.37 0 .22-.02.39-.05.51-.04.12-.16.21-.36.26-.21.06-.53.09-.97.1s-1.07.02-1.89.02c-.54 0-.97 0-1.3-.01-.33 0-.59-.02-.78-.03-.2-.01-.34-.03-.44-.06-.1-.02-.18-.06-.25-.11-.12-.08-.2-.18-.24-.31s-.06-.34-.06-.64h-2.96v.48c0 .35.02.65.05.9s.08.47.15.65c.07.19.16.35.29.48.12.13.27.26.44.37.18.11.4.2.65.28.25.07.57.13.96.18s.86.08 1.42.1 1.22.03 2 .03c.75 0 1.4-.01 1.94-.02s1-.03 1.38-.05.69-.06.94-.09c.24-.04.44-.08.59-.14.52-.19.89-.52 1.12-.98s.34-1.13.34-2c0-.7-.07-1.24-.22-1.61-.14-.37-.39-.68-.73-.91-.16-.1-.34-.18-.53-.25s-.45-.12-.77-.16c-.33-.04-.75-.07-1.28-.1-.53-.02-1.2-.05-2.02-.08-.53-.01-.98-.02-1.36-.04-.38-.01-.69-.03-.94-.04-.25-.02-.45-.03-.59-.04-.15-.01-.25-.03-.32-.05-.3-.07-.45-.28-.45-.64 0-.18.03-.33.08-.44s.17-.19.35-.24c.19-.05.46-.08.83-.1.37-.01.88-.02 1.52-.02.57 0 1.03 0 1.38.01s.62.02.82.03c.21.01.35.04.44.07s.16.07.22.12c.09.07.15.15.18.25s.05.27.06.53h2.94c.01-.1.02-.19.02-.29v-.18c0-.6-.07-1.07-.2-1.41s-.34-.61-.64-.81c-.18-.12-.39-.22-.62-.3s-.53-.14-.88-.19c-.36-.04-.79-.08-1.29-.1-.51-.02-1.12-.03-1.84-.03zm71.77 0c-1.31 0-2.38.02-3.21.06s-1.49.12-1.99.23c-.5.12-.86.28-1.11.49s-.43.49-.56.83c-.06.14-.11.3-.14.49-.04.18-.06.41-.08.69-.02.27-.04.61-.05 1.01s-.02.87-.02 1.43c0 .64.01 1.17.02 1.58.02.42.03.74.05.97.06.51.17.92.34 1.22s.41.55.74.74c.2.12.44.22.73.29.29.08.65.14 1.1.18s1.01.07 1.68.09c.67.01 1.5.02 2.48.02.55 0 1.04-.01 1.46-.02.43-.01.8-.03 1.13-.06s.61-.07.86-.11c.25-.05.48-.1.68-.16.55-.18.94-.48 1.18-.89.23-.41.35-1.02.35-1.83 0-.08 0-.18-.01-.32 0-.13-.01-.34-.02-.63h-3.06c0 .37-.02.66-.07.86-.05.21-.17.36-.39.45s-.55.15-1.01.17c-.46.01-1.1.02-1.94.02-.8 0-1.42-.01-1.86-.04s-.76-.13-.97-.29-.33-.42-.37-.77-.06-.85-.06-1.49c0-.38.01-.71.02-.97.02-.27.04-.5.08-.68.04-.19.09-.34.15-.45s.14-.21.23-.29c.08-.06.18-.11.3-.15s.28-.07.49-.09.47-.03.78-.04c.32-.01.71-.01 1.19-.01.51 0 .95.01 1.31.01.36.01.67.03.92.06s.44.07.58.11.23.09.29.15c.06.08.1.18.12.29s.04.32.06.61h3.05v-.49c0-.4-.02-.75-.06-1.05s-.1-.56-.19-.78-.21-.4-.36-.55-.33-.28-.54-.39c-.17-.09-.36-.17-.58-.23s-.49-.11-.82-.14-.72-.06-1.19-.07-1.03-.02-1.71-.02zm56.41 0c-1.05 0-1.91.01-2.58.02s-1.22.05-1.64.1c-.43.05-.76.12-1.01.21s-.46.21-.65.36-.35.33-.48.55-.23.49-.31.83-.13.75-.16 1.24-.04 1.09-.04 1.79c0 .74.01 1.36.04 1.87.03.5.08.93.16 1.28.07.34.17.63.3.84.12.22.29.4.49.55.19.15.41.27.65.36s.58.16 1.01.21c.42.05.98.08 1.66.1.68.01 1.55.02 2.6.02 1.03 0 1.88-.01 2.55-.02.67-.02 1.22-.05 1.64-.1s.76-.12 1.01-.21.46-.21.65-.36.35-.33.48-.54.23-.49.31-.83.13-.77.16-1.27.04-1.11.04-1.83-.01-1.33-.04-1.82-.08-.92-.16-1.26c-.08-.35-.18-.62-.31-.83s-.29-.39-.48-.54-.41-.27-.65-.36-.58-.16-1.01-.21-.97-.08-1.64-.1c-.67-.01-1.53-.02-2.58-.02zm53.96 0c-.9 0-1.65.01-2.24.02s-1.08.04-1.46.07c-.39.04-.7.09-.93.16-.24.07-.45.16-.64.26-.7.39-1.05 1.32-1.05 2.78 0 .51.04.93.13 1.26s.23.61.42.84c.22.26.53.45.92.56.4.12.96.18 1.69.2l.81.03 1.62.08 2.4.09c.24 0 .44.01.59.04.16.03.28.07.37.13s.15.14.19.23c.04.1.06.22.06.37 0 .22-.02.39-.06.51-.03.12-.15.21-.36.26-.2.06-.53.09-.97.1s-1.07.02-1.89.02c-.54 0-.97 0-1.3-.01-.33 0-.58-.02-.78-.03s-.34-.03-.44-.06c-.1-.02-.18-.06-.25-.11-.12-.08-.2-.18-.24-.31s-.06-.34-.06-.64h-2.96v.48c0 .35.02.65.05.9s.08.47.15.65c.07.19.17.35.29.48s.26.26.43.37c.18.11.4.2.65.28.25.07.57.13.96.18s.86.08 1.42.1 1.22.03 2 .03c.75 0 1.4-.01 1.94-.02s1-.03 1.38-.05.69-.06.94-.09c.24-.04.44-.08.59-.14.52-.19.89-.52 1.12-.98s.34-1.13.34-2c0-.7-.07-1.24-.22-1.61s-.39-.68-.73-.91c-.16-.1-.34-.18-.53-.25s-.45-.12-.77-.16c-.33-.04-.75-.07-1.28-.1-.53-.02-1.2-.05-2.02-.08-.53-.01-.98-.02-1.36-.04-.37-.01-.69-.03-.94-.04-.25-.02-.45-.03-.59-.04s-.25-.03-.32-.05c-.3-.07-.45-.28-.45-.64 0-.18.03-.33.08-.44s.17-.19.35-.24c.19-.05.46-.08.83-.1.37-.01.88-.02 1.52-.02.57 0 1.03 0 1.37.01s.62.02.83.03.35.04.44.07.16.07.22.12c.09.07.15.15.18.25s.05.27.06.53h2.94c.01-.1.01-.19.01-.29v-.18c0-.6-.07-1.07-.2-1.41s-.34-.61-.65-.81c-.18-.12-.39-.22-.62-.3-.24-.08-.53-.14-.89-.19-.36-.04-.79-.08-1.29-.1-.51-.02-1.12-.03-1.84-.03zm-37.21.09-3.96 3.69h-1.67v-3.63h-3.05v10.01h3.05v-3.83h1.67l4.49 3.83h4.62l-6.28-5.1 5.8-4.97zm-170.91.06v10.01h3.2v-10.01zm4.61 0v10.01h3.11l-.08-7.46h.33l5.27 7.46h5.3v-10.01h-3.11l.07 7.46h-.31l-5.24-7.46zm28.22 0v4.61c.01.54.02.98.02 1.31 0 .32 0 .53.01.64.02.37.05.69.08.95.03.27.08.5.13.71.06.2.13.38.22.53s.19.28.31.41c.19.2.42.37.68.5s.62.23 1.05.31c.44.07.98.13 1.63.16s1.46.04 2.42.04c.58 0 1.09 0 1.52-.01s.81-.02 1.13-.04.61-.04.86-.07.49-.07.72-.12c.57-.12 1.04-.37 1.4-.75s.59-.86.67-1.43c.02-.18.04-.34.05-.47.02-.13.03-.3.04-.51.01-.2.02-.47.03-.8s.02-.78.03-1.35v-4.61h-3.05v4.61c0 .11 0 .27-.01.47s-.01.39-.02.56c-.01.24-.02.44-.04.59-.02.16-.04.29-.07.4s-.07.2-.11.28c-.04.07-.09.14-.15.2-.08.09-.19.17-.32.22-.14.06-.32.11-.55.14s-.52.05-.88.07c-.35.02-.79.02-1.31.02-.65 0-1.18-.01-1.6-.04s-.75-.07-.99-.14c-.25-.07-.42-.17-.53-.29s-.19-.29-.22-.49c-.02-.1-.04-.19-.05-.26s-.02-.17-.02-.3c0-.12-.01-.3-.02-.52 0-.22-.01-.53-.02-.92v-4.61zm14.36 0v10.01h3.05v-2.54h4.31c.31 0 .57 0 .77.01s.36.02.48.04.21.05.28.08.12.08.17.14c.06.06.11.13.15.22s.07.19.09.32.03.3.05.49c.01.2.02.43.02.71v.53h3v-.93c.01-.58 0-1.05-.04-1.41s-.11-.64-.24-.86c-.13-.21-.3-.36-.54-.46s-.55-.17-.94-.22c.3-.05.53-.11.71-.16.17-.06.33-.15.47-.26.13-.1.24-.22.33-.35s.16-.29.22-.48.09-.42.11-.68.03-.58.03-.95c0-.43-.02-.8-.05-1.11s-.08-.57-.16-.79-.18-.41-.31-.55c-.13-.15-.29-.29-.48-.41-.16-.1-.3-.17-.43-.22s-.32-.09-.57-.11-.62-.04-1.1-.05-1.14-.01-2-.01zm17.85 0-5.3 10.01h3.48l.86-1.7h6.62l.86 1.7h3.47l-5.24-10.01zm10.43 0v10.01h3.11l-.08-7.46h.33l5.27 7.46h5.3v-10.01h-3.11l.07 7.46h-.31l-5.24-7.46zm28.97 0v10.01h11.14v-2.4h-8.13v-1.59h7.67v-2.21h-7.67v-1.46h8.08v-2.36zm15.85 0v10.01h7.21c.84 0 1.5 0 1.98-.01s.86-.01 1.12-.03.46-.04.59-.07.26-.07.4-.12c.45-.15.77-.42.97-.8s.29-.94.29-1.66c0-.4-.03-.74-.08-1.02-.06-.28-.15-.52-.29-.71-.13-.19-.31-.34-.53-.44s-.5-.19-.83-.25c.5-.14.85-.38 1.05-.72s.3-.87.3-1.58c0-.45-.04-.83-.11-1.15-.08-.32-.2-.57-.37-.77s-.39-.35-.67-.45-.62-.17-1.03-.2c-.11-.01-.21-.02-.3-.02-.09-.01-.22-.01-.4-.01s-.43 0-.76-.01-.78-.01-1.37-.01zm13.63 0v10.01h3.05v-2.54h4.31c.31 0 .57 0 .77.01s.36.02.48.04.21.05.28.08.12.08.17.14c.06.06.11.13.15.22s.07.19.09.32.03.3.05.49c.01.2.02.43.02.71v.53h3v-.93c.01-.58 0-1.05-.04-1.41s-.11-.64-.24-.86c-.12-.21-.31-.36-.54-.46-.24-.1-.55-.17-.94-.22.3-.05.53-.11.71-.16.17-.06.33-.15.47-.26.13-.1.24-.22.33-.35s.16-.29.22-.48.09-.42.11-.68.03-.58.03-.95c0-.43-.02-.8-.05-1.11s-.08-.57-.16-.79c-.07-.22-.18-.41-.31-.55-.13-.15-.29-.29-.48-.41-.16-.1-.3-.17-.43-.22s-.32-.09-.57-.11c-.26-.02-.62-.04-1.09-.05-.48-.01-1.14-.01-2-.01zm42.54 0v10.01h11.14v-2.4h-8.14v-1.59h7.67v-2.21h-7.67v-1.46h8.08v-2.36zm12.1 0v10.01h3.05v-2.54h4.31c.31 0 .57 0 .77.01s.36.02.48.04.21.05.28.08.12.08.17.14c.06.06.11.13.15.22s.07.19.09.32.03.3.05.49c.01.2.01.43.01.71v.53h3v-.93c.01-.58 0-1.05-.04-1.41s-.11-.64-.24-.86c-.12-.21-.31-.36-.54-.46-.24-.1-.55-.17-.94-.22.3-.05.53-.11.71-.16.17-.06.33-.15.47-.26.13-.1.24-.22.33-.35s.16-.29.22-.48.09-.42.11-.68.03-.58.03-.95c0-.43-.02-.8-.05-1.11s-.08-.57-.16-.79c-.07-.22-.18-.41-.31-.55-.13-.15-.29-.29-.48-.41-.16-.1-.3-.17-.43-.22s-.32-.09-.57-.11c-.26-.02-.62-.04-1.1-.05s-1.14-.01-2-.01zm-121.47 2.33h.6l1.94 3.8h-4.47zm56.1.03h4.29c.34 0 .61 0 .8.01.2.01.34.01.44.01.11 0 .19 0 .23.01s.08.01.12.02c.3.07.45.31.45.72 0 .38-.11.62-.33.71-.1.05-.28.08-.53.1s-.65.02-1.19.02h-4.29zm30.97.09c.7 0 1.26.01 1.67.02.42.01.74.03.98.06s.41.08.52.13c.11.06.21.14.3.24.07.08.13.18.17.3s.08.27.11.46c.03.18.05.41.06.68.01.26.01.58.01.95 0 .3-.01.56-.02.78-.02.21-.04.39-.08.54-.03.15-.08.27-.13.36-.06.1-.13.18-.22.25-.1.08-.22.14-.35.19s-.33.08-.56.11c-.24.02-.55.04-.94.05s-.89.02-1.49.02c-.63 0-1.14-.01-1.54-.02s-.71-.03-.96-.05c-.24-.02-.43-.06-.56-.11-.13-.04-.25-.11-.35-.19-.09-.07-.16-.15-.22-.25-.06-.09-.1-.22-.13-.36s-.05-.32-.07-.54c-.01-.22-.02-.48-.02-.79 0-.64.02-1.12.05-1.45.04-.33.1-.57.19-.74.07-.15.16-.27.26-.35s.28-.14.52-.19c.24-.04.58-.07 1.02-.08s1.04-.02 1.79-.02zm-103.92.06h4.29c.34 0 .61 0 .8.01.2.01.34.01.45.01.11.01.18.02.23.03.05.02.1.03.15.05.16.07.27.19.34.35s.1.41.1.75c0 .32-.02.56-.07.72s-.14.28-.26.36c-.05.04-.1.07-.14.09-.05.02-.12.04-.23.04-.11.01-.27.02-.48.02s-.5.01-.88.02h-4.29zm86.73 0h4.29c.34 0 .61 0 .8.01.2.01.35.01.45.01.1.01.18.02.23.03.05.02.1.03.15.05.16.07.27.19.34.35.06.16.1.41.1.75 0 .32-.03.56-.08.72s-.13.28-.25.36c-.05.04-.1.07-.14.09-.05.02-.12.04-.23.04-.11.01-.27.02-.48.02s-.51.01-.88.02h-4.29zm54.64 0h4.29c.34 0 .61 0 .8.01.2.01.35.01.45.01.1.01.18.02.23.03.05.02.1.03.15.05.16.07.27.19.34.35.06.16.1.41.1.75 0 .32-.03.56-.07.72-.05.16-.14.28-.26.36-.05.04-.1.07-.14.09-.05.02-.12.04-.23.04-.11.01-.27.02-.48.02s-.51.01-.88.02h-4.29zm29.81.84v3.02c18.2-.35 36.41-.82 54.61-1.51-18.2-.69-36.4-1.16-54.61-1.51zm-228.1.03c-17.82.35-35.65.8-53.47 1.48 17.82.67 35.65 1.13 53.47 1.48zm129.87 2.57h4.31c.44 0 .78 0 1.02.01s.42.01.54.01.2 0 .24.01.08.01.12.02c.17.04.29.12.37.23.08.12.11.29.11.52 0 .4-.12.65-.36.75-.06.03-.11.05-.16.07-.05.01-.14.03-.26.03-.13.01-.31.01-.56.02s-.6.01-1.05.01h-4.31z"
      fill="#518dc4"
      transform="matrix(.75 0 0 -.75 0 600)"/>
    <g fill="#fff">
      <path d="m763.89 46.77h-50.18v2.19h50.18z"/>
      <path d="m0 0h-4.35v12.23h72.31v-4.34h-67.96z" transform="matrix(.503 0 0 .503 729.713 47.316)"/>
      <path d="m0 0h-4.35v15.5h32.34v-4.35h-27.99z" transform="matrix(.503 0 0 .503 749.817 52.787)"/>
      <path
        d="m0 0c1.08 11.02-9.88 11.84-9.88 11.84l1.89 2.5-10.72-3.97 10.41-4.61-1.78 2.55c4.78-.5 6.15-4.39 3.81-8.48-2.92-5.08-6.91-3.11-6.91-3.11l-79.9 32.48-.38-3.77 75.88-36.36s3.72-2.46.8-7.54c-2.35-4.08-6.41-4.86-9.24-.98l3.1-.26-9.23 6.67 1.97-11.25 1.2 2.89s6.23-9.06 15.21-2.58c8.98 6.49 12 6.97 15.81 6.86-2.02 3.25-3.12 6.1-2.04 17.12"
        transform="matrix(.503 0 0 .503 760.737 33.92)"/>
      <path d="m744.97 68.26h-8.51v-8.57h8.51z"/>
      <path d="m736.46 51.89h8.51v5.86h-8.51z"/>
      <path d="m0 0c-.01-.09-.03-.18-.03-.27 0-1.46 1.19-2.65 2.65-2.65h17.53c1.47 0 2.65 1.19 2.65 2.65 0 .09-.02.18-.03.27z" transform="matrix(.503 0 0 .503 734.986 68.52)"/>
      <path d="m0 0 13.32-29.13 13.39 29.13h24.62v-44.87h-13.46l.34 33.57h-2.29l-16.88-33.57h-11.37l-16.89 33.57h-2.42l.34-33.57h-13.46v44.87z" transform="matrix(.503 0 0 .503 775.461 63.911)"/>
      <path
        d="m0 0c-1.03-.09-1.84-.21-2.42-.37-.58-.15-1.04-.42-1.38-.81-.34-.38-.55-.89-.64-1.51-.09-.63-.14-1.46-.14-2.49 0-1.39.08-2.47.24-3.23s.64-1.32 1.45-1.68 2.05-.58 3.73-.64c1.68-.07 4.07-.1 7.16-.1l12.31.06c.58.05 1.02.09 1.31.14s.64.16 1.04.34zm37.41 4.31c.04-.54.07-.97.07-1.28v-1.41c0-1.3-.01-2.38-.03-3.23s-.06-1.58-.1-2.19c-.06-.6-.11-1.12-.18-1.55-.07-.42-.17-.84-.3-1.24l10.43-5.18-4.31-8.75-9.35 4.85c-.72-1.03-1.61-1.87-2.69-2.52-1.07-.65-2.53-1.16-4.37-1.52s-4.15-.62-6.93-.78-6.26-.23-10.43-.23c-3.68 0-6.76.03-9.25.1s-4.59.2-6.29.4c-1.71.21-3.09.47-4.14.81s-1.96.78-2.72 1.31c-.76.54-1.4 1.13-1.92 1.79-.52.65-.94 1.44-1.28 2.35-.34.92-.57 2-.71 3.23-.13 1.23-.2 2.68-.2 4.34 0 2.07.13 3.78.4 5.15.27 1.37.74 2.48 1.41 3.33s1.62 1.5 2.83 1.95 2.76.81 4.64 1.08c-.85.31-1.56.71-2.12 1.18s-1.01 1.07-1.35 1.78c-.34.72-.57 1.58-.71 2.59s-.2 2.23-.2 3.66c0 2.96.47 5.19 1.41 6.7.94 1.5 2.53 2.57 4.78 3.19.58.18 1.27.33 2.05.44s1.76.21 2.93.27c1.16.07 2.58.11 4.24.14s3.66.03 5.99.03c3.77 0 6.84-.02 9.22-.07s4.31-.14 5.78-.27c1.48-.13 2.63-.32 3.43-.57.81-.25 1.55-.57 2.22-.98 1.35-.85 2.28-2.03 2.79-3.53.52-1.5.78-3.74.78-6.69l-.07-2.63h-11.97c-.09 1.44-.18 2.42-.27 2.96s-.27.92-.54 1.14c-.36.31-1.18.53-2.46.64s-3.37.17-6.29.17c-3.23 0-5.62-.04-7.17-.1-1.53-.07-2.49-.17-2.84-.3-.86-.31-1.28-1.05-1.28-2.22 0-.72.16-1.25.47-1.58.31-.34 1.08-.8 2.29-1.38l22.73-11.1.07.54.14 2.15v1.01.94c0 .32-.05.67-.14 1.08z"
        transform="matrix(.503 0 0 .503 812.445 51.526)"/>
      <path d="m843.57 41.34h-5.99v22.59h5.99z"/>
      <path
        d="m0 0c-.97.14-2.03.23-3.21.23-2.64.01-4.72-.41-6.41-1.03-1.7-.62-2.95-1.38-4.07-1.95-.75-.39-1.44-.71-2.23-.96-1.06-.34-2.33-.58-4.22-.58-2.12.01-3.47.31-4.61.72s-2.13.99-3.44 1.68c-.86.45-1.86.92-3.05 1.3-1.58.51-3.49.84-5.83.83-2.64.01-4.72-.41-6.41-1.03-1.7-.62-2.96-1.38-4.07-1.95-.75-.39-1.44-.71-2.23-.96-1.06-.34-2.34-.58-4.22-.58-2.12.01-3.47.31-4.61.72s-2.13.99-3.44 1.68c-.87.45-1.86.92-3.05 1.3-1.14.37-2.46.63-3.98.76v.02c-.04 0-.08-.01-.11-.01-.04 0-.07.01-.11.01v-.02c-1.52-.12-2.84-.39-3.98-.76-1.19-.38-2.19-.86-3.05-1.3-1.3-.68-2.3-1.27-3.44-1.68s-2.49-.71-4.61-.72c-1.88 0-3.16.25-4.22.58-.8.25-1.48.58-2.23.96-1.12.57-2.37 1.33-4.07 1.95-1.69.62-3.77 1.03-6.41 1.03-2.35 0-4.25-.32-5.83-.83-1.19-.38-2.18-.86-3.05-1.3-1.3-.68-2.3-1.27-3.44-1.68s-2.49-.71-4.61-.72c-1.89 0-3.16.25-4.22.58-.8.25-1.48.58-2.23.96-1.11.57-2.37 1.33-4.07 1.95-1.69.62-3.77 1.03-6.41 1.03-2.35 0-4.25-.32-5.83-.83-1.19-.38-2.19-.86-3.05-1.3-1.3-.68-2.3-1.27-3.44-1.68s-2.49-.71-4.61-.72c-1.88 0-3.16.25-4.22.58-.8.25-1.49.58-2.23.96-.44.23-.92.49-1.42.75v-5.93c.45-.21.93-.42 1.46-.62 1.69-.62 3.77-1.03 6.41-1.03 2.35 0 4.25.32 5.83.83 1.19.38 2.18.86 3.05 1.31 1.3.68 2.3 1.26 3.44 1.67s2.49.71 4.61.72c1.88 0 3.16-.24 4.22-.58.8-.25 1.49-.57 2.23-.96 1.11-.57 2.37-1.33 4.07-1.95s3.77-1.03 6.41-1.03c2.35 0 4.25.32 5.83.83 1.19.38 2.19.85 3.05 1.31 1.3.68 2.3 1.26 3.44 1.67s2.49.71 4.61.72c1.89 0 3.16-.24 4.22-.58.8-.25 1.49-.58 2.23-.96 1.12-.57 2.37-1.33 4.07-1.95 1.69-.62 3.77-1.03 6.41-1.03 2.35 0 4.25.32 5.83.83 1.19.38 2.19.85 3.05 1.31 1.31.68 2.3 1.26 3.44 1.67.79.28 1.69.51 2.87.63 1.18-.12 2.08-.34 2.87-.63 1.14-.41 2.13-.99 3.44-1.67.87-.45 1.86-.92 3.05-1.31 1.58-.51 3.48-.84 5.83-.83 2.64-.01 4.72.41 6.41 1.03 1.7.62 2.96 1.38 4.07 1.95.75.39 1.44.71 2.23.96 1.06.34 2.34.58 4.22.58 2.12 0 3.47-.3 4.61-.72 1.14-.41 2.13-.99 3.44-1.67.87-.45 1.86-.92 3.05-1.31 1.59-.51 3.49-.84 5.83-.83 2.64-.01 4.72.41 6.41 1.03 1.7.62 2.95 1.38 4.07 1.95.75.39 1.44.71 2.23.96 1.06.34 2.33.58 4.22.58 1.34 0 2.34-.13 3.21-.32z"
        transform="matrix(.503 0 0 .503 843.315 30.469)"/>
      <path d="m0 0h-13.63c-1.12 0-2.05.8-2.14 1.85l-1.56 17.25c-.11 1.18.88 2.19 2.14 2.19h15.19c1.19 0 2.15-.91 2.15-2.02v-17.25c0-1.12-.96-2.02-2.15-2.02" transform="matrix(.503 0 0 .503 858.098 123.348)"/>
      <path
        d="m0 0v4.35l3.47-4.35zm93.36-3.37h24.97v-44.04l-22.53 8.91zm28.34-196.75v10.46l18.51-10.46zm-8.44-3.37h6.75 24.88 6.75l2.85-4.74h-9.6-24.88-9.6zm-16.91-8.12h11.09 10.89v-5.55h-21.98zm50.24 0h10.89 11.1v-5.55h-22zm-3.37 208.24v-5.47l-8.84 5.47zm9.08 0h24.18v-25.57h-24.18zm29.05 12.88v-7.81l-6.4 7.82zm-26.13 9.12v-5.75h-8.97l-6.57 29.41 2.03 1.5 18.84-25.16zm-15.93 27.55-2.04-1.5h-9.58l-2.04 1.5 4.67 10.35h4.32zm-15.31 4.52-1.98-4.37c-.33-.73-.1-1.58.54-2.05l2.65-1.95-6.01-29.45h-101.7zm-99.69-50.7h-7.01v8.79zm10.51 0h-7.25v8.84zm10.32 0h-7.02v8.79zm10.5 0h-7.24v8.84zm10.32 0h-7.01v8.79zm10.5 0h-7.24v8.84zm10.32 0h-7.01v8.79zm72.97 0h-7.24v8.84zm10.32 0h-7.02v8.79zm1.57 9.52v-8.79l-7.02 8.79zm-10.27 0v-8.85l-7.24 8.84zm-10.55 0v-8.79l-7.01 8.79h1.1zm-38.33 0h7.24v-8.85zm-10.32 0h7.01v-8.79zm-3.26-8.85-7.24 8.85h7.23zm24.09 8.84h7.02v-8.78zm8.69-.67 7.24-8.84h-7.24zm-10.28-8.84v8.79l7.02-8.79zm-10.54 8.84 7.24-8.84h-7.25zm-10.28-.05 7.02-8.79h-7.01zm39.96.72v-8.84l-7.23 8.84zm-52.18-8.78-7.02 8.79h7.02zm-10.28 8.79v-8.85l-7.25 8.85zm-10.55-8.79-7.01 8.79h7.01zm-10.28 8.79v-8.85l-7.23 8.85zm-10.54-8.79-7.02 8.79h7.02zm-10.28 8.79v-8.85l-7.24 8.84zm-10.54-8.79-7.02 8.79h7.01zm-10.29 8.79v-8.85l-7.23 8.85zm127.2 3.37h-20.18l5.8 28.44h8.03zm35.36-12.89h-4.84v8.84l7.25-8.84zm-33.26 0h-2.67v8.79l7.02-8.79zm-23.2-3.37h9.47l10.77-6.67h-20.24zm21.51-185.21v-11.31l-19.99 11.31zm-21.51 1.68v12.54l20.24-12.54zm1.52 175.17h19.99v-11.3zm-1.52-1.07 20-11.31h-20zm0-29.48 20-11.31h-20v3.69zm0-129.21v11.3l20-11.3zm21.51-14.23-20.24 12.54h20.24zm-20.24 159.92h20.24v-12.54zm-1.27-13.73v12.54l20.24-12.54zm21.51-12.99-19.99 11.3h19.99zm-20.24-2.77h20.24v-12.53zm-1.27-1.18 20.24-12.54h-20.24zm0-29.48 20.24-12.55h-20.24zm0-29.49 20.24-12.53h-20.24zm21.51-55-19.99 11.3h19.99zm0 26.72v-12.53l-20.24 12.53zm-1.52 1.68h-20v11.31zm1.52 1.08-19.99 11.31h19.99zm0 26.72v-12.54l-20.24 12.54zm-1.52 1.68h-20v11.3zm1.52 1.08-19.99 11.3h19.99zm0 26.71v-12.54l-20.24 12.54zm-1.52 1.69h-20v11.29zm1.52 1.07-19.99 11.31h19.99zm-21.51-62.91 20.24-12.54h-20.23zm-31.66 144.92v8.84l7.23-8.84h-5.71zm-83.3 0v8.84l7.24-8.84zm-6.73 9.52h5.05v-8.79l-5.05 6.32zm-3.37 1.68v-12.89c0-.93.75-1.68 1.68-1.68h7.33v-53.96l-7.85-1.7v-6.09l5.46-4.75h1.41l.42-4.53c-.01-.05-.03-.11-.03-.16 0-.69.56-1.25 1.24-1.25 2.92 0 5.28-2.37 5.28-5.27 0-2.91-2.37-5.28-5.28-5.28s-5.27 2.37-5.27 5.28c0 .69-.56 1.24-1.24 1.24s-1.25-.55-1.25-1.24c0-4.27 3.49-7.76 7.76-7.76 4.28 0 7.76 3.49 7.76 7.76 0 3.79-2.73 6.94-6.32 7.62v3.59h1.99l5.47 4.75v6.09l-7.86 1.7v53.96h82.64l2.53-36.43c.05-.65.46-1.21 1.07-1.45l24.75-9.78v-149.09h-6.02c-.59 0-1.14-.31-1.45-.82l-4.38-7.29h-11.81c-.92 0-1.68-.75-1.68-1.68v-8.93c0-.93.76-1.68 1.68-1.68h25.36c.93 0 1.68.75 1.68 1.68v7.24h21.51v-7.24c0-.93.76-1.68 1.69-1.68h25.35c.93 0 1.68.75 1.68 1.68v8.93c0 .93-.75 1.68-1.68 1.68h-11.83l-4.38 7.29c-.3.51-.85.82-1.45.82h-6.02v196.75h2.34v-27.25c0-.93.76-1.68 1.68-1.68h27.55c.93 0 1.69.75 1.69 1.68v27.25h3.19c.93 0 1.68.76 1.68 1.68v12.88c0 .93-.75 1.69-1.68 1.69h-9.47v5.75h-10.9l-19.74 26.37c.18.42.2.89 0 1.33l-5.68 12.57c-.28.6-.87.99-1.54.99h-6.49c-.66 0-1.26-.38-1.54-.99l-2.73-6.07-112.48-39.94h-14.13c-.93 0-1.68-.75-1.68-1.69"
        transform="matrix(.503 0 0 .503 800.886 137.168)"/>
      <path d="m0 0h-6.03c-.95 0-1.72.77-1.72 1.72v6.49c0 .95.77 1.72 1.72 1.72h6.03c.96 0 1.73-.77 1.73-1.72v-6.49c0-.95-.77-1.72-1.73-1.72" transform="matrix(.503 0 0 .503 888.13 129.672)"/>
      <path d="m0 0h-6.03c-.95 0-1.73.77-1.73 1.72v6.49c0 .95.78 1.72 1.73 1.72h6.03c.95 0 1.73-.77 1.73-1.72v-6.49c0-.95-.78-1.72-1.73-1.72" transform="matrix(.503 0 0 .503 882.105 129.672)"/>
      <path d="m0 0h-6.03c-.95 0-1.72.77-1.72 1.72v6.49c0 .95.77 1.72 1.72 1.72h6.03c.96 0 1.73-.77 1.73-1.72v-6.49c0-.95-.77-1.72-1.73-1.72" transform="matrix(.503 0 0 .503 888.13 123.432)"/>
      <path d="m0 0h-6.03c-.95 0-1.73.77-1.73 1.72v6.49c0 .95.78 1.72 1.73 1.72h6.03c.95 0 1.73-.77 1.73-1.72v-6.49c0-.95-.78-1.72-1.73-1.72" transform="matrix(.503 0 0 .503 882.105 123.432)"/>
      <path d="m0 0-77.74 71.53-79.97-77.41h3.66l76.27 74 76.37-70.2z" transform="matrix(.503 0 0 .503 842.715 61.966)"/>
      <path d="m773.28 62.45-.93.82 28.09 31.83.93-.82z"/>
      <path d="m837.6 62.42-31.83 31.84.88.88 31.84-31.83z"/></g>
  </g>
  <path
    d="m107.77 325.89c-27.38.02-44.06 18.82-71.43 18.82-13.95 0-25.12-4.88-36.34-9.68v164.97h800v-170.24c-16.28 5.51-30.31 14.95-49.71 14.95-27.36.01-44.01-18.8-71.37-18.82-27.37.02-44.06 18.82-71.42 18.82-27.36.01-44.01-18.8-71.37-18.82-27.38.02-44.06 18.82-71.43 18.82-27.36.01-44.01-18.8-71.36-18.82-27.38.02-44.06 18.82-71.43 18.82-27.37.01-44.01-18.8-71.37-18.82-27.37.02-44.06 18.82-71.42 18.82-27.36.01-44.01-18.8-71.37-18.82z"
    fill="url(#b)"
    fill-rule="evenodd"/>
  <path d="M 399.42693,0 H 800 V 500 H 399.42693 c 32.7972,-72.37172 39.26291,-159.20646 0,-250 -39.2629,-90.79354 -31.50494,-165.430215 0,-250 z" fill="#fff" fill-rule="evenodd"/>
  <text style="font-size:18.667;font-family:Arial;letter-spacing:0;word-spacing:0;text-anchor:middle;fill:#808080" x="603.692" y="35.324">
    <tspan font-family="Arial" font-size="18.667" text-anchor="middle" x="603.692" y="35.324">CONTACT:</tspan>
  </text>
  <text fill="#8390ab" font-family="Verdana" font-size="10.667" letter-spacing="0" word-spacing="0" x="489.064" y="372.131">
    <tspan x="489.064" y="372.131">MARINE &amp; INDUSTRIAL INSURANCE BROKERS</tspan><tspan x="489.064" y="385.357"/></text>
  <text style="font-size:18.667;font-family:Arial;letter-spacing:0;word-spacing:0;text-anchor:middle;fill:#fff" x="206.125" y="377.901">
    <tspan x="206.125" y="377.901">
      <tspan font-family="Arial" font-size="18.667" text-anchor="middle">SOCIAL</tspan>:</tspan>
  </text>
  <text style="font-style:italic;font-size:13.333;font-family:Verdana;letter-spacing:0;word-spacing:0;fill:#4a4a4a" x="533.125" y="471.75">
    <tspan style="font-style:italic;font-size:13.333;font-family:Verdana;letter-spacing:0;word-spacing:0;fill:#4a4a4a" x="533.125" y="471.75">Justin Taylor, President</tspan>
  </text>
  <path
    d="m685.07 389.66c-17.2.09-34.19 4.1-51.2 6.17-4.56 1.76-9.37 2.68-14.01 4.17 4.11 6.12 9.69 12.41 9.56 20.17.39-.09 1.16-.26 1.54-.35.28 6.54-.52 13.06-.38 19.6 4.98-13.03 5-27.32 6.39-41.06 9.51-2.17 19.17-3.73 28.82-5.15 5.64-.82 11.31-1.6 16.99-2.04 3.25-.35 6.87.86 9.67-1.3-2.47-.16-4.93-.23-7.39-.22zm-164.87 5.61c-1.16-.02-2.37.11-3.61.43-4.08 1.43-10.88 1.92-11.58 7.14 5.29-2.1 10.27-5.72 16.11-5.88 6.89 1.34 11.33 7.79 13.14 14.19-9.89 1.38-19.98 5.17-26.62 12.93-4.22 4.75-5.69 12.85-.96 17.77 6.71 7.3 19.6 5.83 25.72-1.53 7.03-7.75 7.18-19.09 5.01-28.78 4.38-.29 8.8-.22 13.18-.68-4.53-.96-9.17-.35-13.75-.17-2.43-7.4-8.48-15.25-16.63-15.4zm112.53 4.51c-.23 6.85-.64 13.69-1.03 20.54-2.83-6.2-5.1-12.66-8.46-18.61 3.2-.44 6.31-1.37 9.5-1.92zm-61.23 10.11c-2.85 3.23-4.46 7.27-5.83 11.3-1.94 1.43-4.54 2.36-5.21 4.96 1.02-.26 3.06-.8 4.09-1.06-.45 4.89 1 11.86 7.27 11.54-3.83-3.09-4.66-7.75-4.21-12.42.64-.36 1.94-1.08 2.59-1.44-.28-.47-.83-1.41-1.11-1.88 1.72-3.42 2.59-7.17 2.4-11zm-36.66 2.23c1.85 9.38.83 20.48-6.33 27.48-5.48 5.45-15.28 5.3-20.42-.52-3.35-4.19-1.6-10.31 1.51-14.14 6.13-7.7 16.02-10.72 25.24-12.82zm149.14 3.29c-4.09 5.32-5.26 12.16-5.94 18.67-4.33-5.43-9.51.83-13.57 3.09 1.02-2.78 2.08-5.53 3.22-8.26-.58-.28-1.75-.82-2.31-1.08-2.14 3.68-3.64 7.75-3.44 12.06 4.94-.89 8.42-4.65 12.51-7.18 1.11 6.41-.71 12.85-4.86 17.81-.38-4.66-.04-9.44 2.43-13.54-4.86 3.57-5.86 9.64-5.49 15.32h3.57c5.01-3.7 6.96-9.77 8.24-15.57.71.77 2.11 2.3 2.81 3.07-2.42-8.48 3.74-16.05 2.84-24.4zm17 3.82c-2.37 1.54-6.39 2.84-6.04 6.29.7 2.27 3.29 2.45 5.14 3.29-.39 2.84-2.59 8.65 1.82 8.94 2.39 1.35 1.83-2.88.48-3.09.54-2.84 1.24-5.64 1.91-8.45-2.11-.12-4.24-.2-6.35-.26.95-2.27 2.13-4.44 3.04-6.73zm-122.83 2.14c-.57 0-1.11.16-1.49.54-1.66 2.21 2.37 4.08 3.93 2.58 1.22-1.63-.73-3.12-2.44-3.12zm-35.59 1.31c-.89 5.39-4.56 11.2-2.37 16.62 2.45 0 4.69-1.15 6.89-2.05 1.3-2.27 1.46-4.97 1.89-7.49-3.51 1.72-4.76 5.64-7.31 8.33.12-5.11 4.85-10.82.9-15.41zm149.53 3.28c-2.59 1.54-5.55 3.07-6.55 6.16-2.24 3.1.12 7.51 4.48 5.72-1.06-.76-2.11-1.51-3.17-2.27.58-.95 1.75-2.85 2.33-3.8l1.53.47-1.85 2.9c.93.57 1.88 1.12 2.84 1.67 1.53-2.65 2.83-5.53-.55-7.31.29-1.18.61-2.36.95-3.54zm-132.84 1.4c-2.46.13-4.94.06-7.36.49-1.08 2.65.31 5.33.8 7.94l-2.83-.39c1.5 2.05 2.99 4.98 6.06 3.67.15-3.58-1.25-6.98-1.83-10.46 3.07.25 4.79 2.61 6 5.17 2.37-1.84.13-4.5-.84-6.42zm92.2 1.23c-3.79.03-6.04 3.78-7.95 6.65 4.51 6.66 10.53-2.85 16.08.8-.86-1.63-1.22-4.18-3.55-4.37-3.1.83-5.9 2.48-8.93 3.52 1.5-2.58 3.79-4.51 6.07-6.38-.61-.16-1.18-.23-1.72-.23zm-64.41.1c-2.69 1.79-6.47 5.22-4.4 8.71 4.19 1.79 6.5-3.36 9.16-5.64.67 2.75 2.48 4.79 4.95 6.06 2.37-1.43 4.66-3.09 5.99-5.58-2.04.89-4.02 1.92-6.09 2.78-.86-2.01-1.25-4.18-1.76-6.29-4.34 0-6.99 3.67-9.83 6.36.67-2.13 1.37-4.25 1.98-6.41zm-12.26.56c-.28.03-.58.09-.9.19-.12 4.01 2.27 7.5 5.49 9.66-.68-3.03-.37-10.3-4.58-9.85z"
    fill="#4d4d4d"
    stroke-width="1.333"/>
  <path
    d="m804.11 329.76c-16.36 5.51-30.47 14.95-49.96 14.95-27.51.01-44.24-18.8-71.73-18.82-27.52.02-44.29 18.82-71.79 18.82-27.51.01-44.24-18.8-71.73-18.82-27.52.02-44.29 18.82-71.79 18.82-27.5.01-44.24-18.8-71.73-18.82-27.52.02-44.29 18.82-71.79 18.82-27.51.01-44.24-18.8-71.73-18.82-27.52.02-44.29 18.82-71.79 18.82-27.51.01-44.24-18.8-71.73-18.82-27.52.02-44.29 18.82-71.79 18.82-14.02 0-25.25-4.88-36.53-9.68"
    fill="none"
    stroke="#5593ca"
    stroke-linejoin="round"
    stroke-width="4"/>
  <path d="m0 0h800v500h-800z" fill="none" stroke="#c8d7e5" stroke-linejoin="round" stroke-width="4"/>
  <g id="facebook" class="socialMedia">
    <title>Go to our facebook</title>
    <path
      d="m168.26 400h-36.52c-3.72 0-6.74 3.02-6.74 6.74v36.52c0 3.72 3.02 6.74 6.74 6.74h18.01l.03-17.87h-4.64c-.6 0-1.09-.49-1.1-1.09l-.02-5.76c0-.61.49-1.1 1.1-1.1h4.63v-5.57c0-6.46 3.94-9.97 9.71-9.97h4.73c.6 0 1.1.49 1.1 1.1v4.86c0 .6-.49 1.09-1.09 1.1h-2.9c-3.13 0-3.74 1.49-3.74 3.67v4.82h6.88c.66 0 1.16.57 1.09 1.22l-.68 5.76c-.07.55-.53.97-1.09.97h-6.17l-.03 17.87h10.72c3.72 0 6.74-3.02 6.74-6.74v-36.53c0-3.72-3.02-6.74-6.74-6.74z"
      fill="#fff"
      fill-rule="evenodd"/>
      <a href="https://www.facebook.com/miibagency/">
  <circle cx="150" cy="425" fill="#f00" fill-rule="evenodd" opacity="0" r="32"/>
      </a>
  </g>
  <g id="twitter" class="socialMedia">
    <title>Go to our twitter</title>
    <path
      d="m270 400h-40c-2.75 0-5 2.25-5 5v40c0 2.75 2.25 5 5 5h40c2.75 0 5-2.25 5-5v-40c0-2.75-2.25-5-5-5zm-5.75 18.25c-.25 11.5-7.5 19.5-18.5 20-4.5.25-7.75-1.25-10.75-3 3.25.5 7.5-.75 9.75-2.75-3.25-.25-5.25-2-6.25-4.75 1 .25 2 0 2.75 0-3-1-5-2.75-5.25-6.75.75.5 1.75.75 2.75.75-2.25-1.25-3.75-6-2-9 3.25 3.5 7.25 6.5 13.75 7-1.75-7 7.75-10.75 11.5-6 1.75-.25 3-1 4.25-1.5-.5 1.75-1.5 2.75-2.75 3.75 1.25-.25 2.5-.5 3.5-1-.25 1.25-1.5 2.25-2.75 3.25z"
      fill="#fff"
      fill-rule="evenodd"/>
      <a href="https://twitter.com/miibagency" target="_blank">
        <circle cx="250" cy="425" fill="#f00" fill-rule="evenodd" opacity="0" r="32"/>
      </a>
  </g>
    <g id="uno" class="contact">
      <title>Visit our website</title>
      <a href="https://miib.agency/" target="_blank">
      <path
        d="m477.99 63.9c-1.01-1.05-2.54-.63-3.84-.72-7.56.01-15.11-.01-22.67.01-1.43.1-2.4 1.55-2.2 2.91.01 5.49-.01 10.97.01 16.46.1 1.43 1.55 2.4 2.91 2.2h7.87c.25 1.34-1.92 2.87-.37 3.85 1.28.16 2.59.03 3.88.07 1.51-.01 3.03.02 4.54-.02 1.76-.7-.2-2.4-.18-3.62-.04-.57.95-.17 1.39-.29 2.4-.01 4.79.01 7.19-.01 1.43-.1 2.4-1.55 2.2-2.91-.01-5.49.02-10.97-.01-16.46-.05-.56-.31-1.09-.71-1.48zm-1.24 14.49c-.16.77-1.1.4-1.66.49-7.79 0-15.57 0-23.36 0-.77-.16-.41-1.1-.49-1.66 0-3.86 0-7.72 0-11.59.16-.77 1.1-.41 1.66-.49h23.36c.77.16.4 1.1.49 1.66z"
        fill="#518dc4"/>
      <circle cx="464" cy="75" fill="#f00" opacity="0" r="25"/>
      <circle cx="500" cy="77.357" fill="#5593ca" r="4"/>
      <text fill="#4a4a4a" font-family="Verdana" font-size="16" letter-spacing="0" word-spacing="0" x="513" y="83">
        <tspan x="513" y="83">https://miib.agency/</tspan>
      </text>
    </a>
    </g>
    <g id="dos" class="contact">
      <title>Call us</title>
      <path
        d="m477.42 142.24c.1-1.07-.99-1.59-1.58-2.31-1.03-.97-1.97-2.06-3.07-2.95-1.32-.73-2.89-.27-4.28.01-4.99 1.47-9.08 4.95-12.47 8.77-2.69 3.16-5.11 6.91-5.43 11.16-.12 1.08.38 2.09 1.2 2.76 1.19 1.17 2.34 2.38 3.56 3.52.9.66 1.82-.22 2.12-1.05.95-1.82 1.94-3.63 2.86-5.46.38-1.28-.9-2.03-1.63-2.85-.86-.87.33-2.1.73-2.94 1.35-1.99 3.1-3.71 5.02-5.16.93-.52 2.04-1.64 3.17-1.23.73.65 1.3 1.53 2.17 1.99 1.2.46 2.14-.57 3.13-1.06 1.35-.82 2.74-1.57 4.05-2.43.22-.19.39-.45.44-.74z"
        fill="#518dc4"
        fill-rule="evenodd"/>
        <a href="tel:8662000398">
          <circle cx="464" cy="150" fill="#f00" fill-rule="evenodd" opacity="0" r="25"/>
        </a>
        <circle cx="500" cy="137" fill="#5593ca" fill-rule="evenodd" r="4"/>
        <circle cx="500" cy="157" fill="#5593ca" fill-rule="evenodd" r="4"/>
        <text fill="#4a4a4a" font-family="Verdana" font-size="16" letter-spacing="0" word-spacing="0" x="513" y="145">
          <a href="tel:8662000398">
            <tspan x="513" y="142">866-200-0398 (Ofice)</tspan>
          </a>
          <a href="2512701425">
            <tspan x="513" y="162">251-270-1425 (Toll free)</tspan>
          </a>
        </text>
    </g>
    <g id="tres" class="contact">
      <title>Write us</title>
      <path
        d="m476.03 223.46c-3.06 2.05-6.06 4.17-9.06 6.29-1.36.85-3.11 1.4-4.64.64-1.96-.81-3.49-2.33-5.27-3.45-2-1.45-4.13-2.73-6.07-4.26-.48-.65-.59-.51-.53.16.01 3.85-.01 7.71.01 11.56.09 1.38 1.49 2.35 2.82 2.17 7.36-.01 14.72.01 22.08-.01 1.38-.1 2.35-1.49 2.17-2.82 0-3.86 0-7.72 0-11.59-.45.5-.96.94-1.51 1.31zm-22.97-1.62c3.03 2.09 6.04 4.23 9.08 6.31 1.01.78 2.45.92 3.5.13 2.64-1.74 5.19-3.61 7.8-5.39 1.67-1.1 3.58-2.36 4.03-4.46.46-1.55-.84-3.3-2.48-3.15-7.46.01-14.93-.02-22.39.01-1.99.12-2.69 2.78-1.67 4.26.55.89 1.27 1.7 2.13 2.29z"
        fill="#518dc4"
        fill-rule="evenodd"/>
        <a href="mailto:email@echoecho.com?subject=SweetWords">
          <circle cx="464" cy="225" fill="#f00" fill-rule="evenodd" opacity="0" r="25"/>
        </a>
      <circle cx="500" cy="212" fill="#5593ca" fill-rule="evenodd" r="4"/>
      <circle cx="500" cy="252" fill="#5593ca" fill-rule="evenodd" r="4"/>
      <text fill="#4a4a4a" font-family="Verdana" font-size="16" letter-spacing="0" word-spacing="0" x="513" y="218.334">
        <tspan x="513" y="218">19009 ST HWY 181</tspan>
        <tspan x="513" y="238">FAIRHOPE, AL 36532 (Postal)</tspan>
        <a href="mailto:email@echoecho.com?subject=SweetWords">
          <tspan x="513" y="258">mailreferencia@algo.com (Email)</tspan>
        </a>
      </text>
    </g>
    <g id="cuatro" class="contact">
      <title>See our location</title>
      <a href="https://www.google.com.pe/maps/place/19009+AL-181,+Fairhope,+AL+36532,+EE.+UU./@30.5023273,-87.8551379,17z/data=!3m1!4b1!4m5!3m4!1s0x889a1556f91c96a7:0x68283484cceed2f2!8m2!3d30.5023273!4d-87.8529492?hl=es-419" target="_blank">
        <path
          d="m474.72 295.21c-.97-3.01-3.04-5.77-5.99-7.06-4.62-2.22-10.7-.9-13.78 3.27-2.41 3.17-2.96 7.7-1.16 11.29 1.5 3.14 3.55 5.97 5.26 8.99 1.63 2.7 3.3 5.38 4.96 8.06 1.79-3 3.45-6.08 5.32-9.02 1.02-1.34 1.74-2.9 2.71-4.28 1.63-2.58 3.44-5.39 3.22-8.58.08-.93-.23-1.8-.53-2.66zm-10.79 7c-2.37.03-4.67-2.2-4.16-4.65.39-2.7 3.71-4.69 6.17-3.22 2.06 1.04 2.97 3.96 1.51 5.86-.81 1.12-2.12 1.98-3.53 2.01z"
          fill="#518dc4"/>
          <circle cx="464" cy="300" fill="#f00" fill-rule="evenodd" opacity="0" r="25"/>
          <circle cx="500" cy="300" fill="#5593ca" r="4"/>
          <text fill="#4a4a4a" font-family="Verdana" font-size="16" letter-spacing="0" word-spacing="0" x="512.286" y="306">
            <tspan x="512.286" y="306">19009 ST HWY 181</tspan>
          </text>
      </a>
    </g>
  </svg>
