<svg id="smileyFace" width="70" height="70" cursor="pointer" viewBox="0 0 44.366742 44.366742" xmlns="http://www.w3.org/2000/svg">
<defs>
<radialGradient id="b">
<stop stop-color="#fff" offset="0"/>
<stop stop-color="#fff" stop-opacity="0" offset="1"/>
</radialGradient>
<filter id="a">
<feGaussianBlur in="SourceGraphic" stdDeviation="1"/>
</filter>
</defs>
<circle cx="22.183" cy="22.183" r="22.183" fill="#ff0"/>
<path d="m14.923 13.764a3.3409 3.3409 0 0 0 -3.3409 3.3409 3.3409 3.3409 0 0 0 3.3409 3.3409 3.3409 3.3409 0 0 0 3.3409 -3.3409 3.3409 3.3409 0 0 0 -3.3409 -3.3409zm14.727 0a3.3409 3.3409 0 0 0 -3.3409 3.3409 3.3409 3.3409 0 0 0 3.3409 3.3409 3.3409 3.3409 0 0 0 3.3409 -3.3409 3.3409 3.3409 0 0 0 -3.3409 -3.3409z" fill="#2e1700"/>
<path d="m14.831 28.37c-2.5076-2.4e-5 -4.5405 1.2562-4.5408 2.806-1.93e-4 1.55 2.0329 2.8066 4.5408 2.8065 0 0 11.791 2.4e-5 14.299 0 2.508 2.4e-5 4.541-1.2566 4.5408-2.8065-2.6e-4 -1.5498-1.2693-2.806-4.5408-2.806-3.2715 0-3.7358 2.5358-7.4808 2.806-3.745 0.27028-2.8069-2.7307-6.8181-2.806z" fill="#ff0">
<animate fill="freeze" attributeName="d" begin="smileyFace.click" dur=".5s" to="m 14.830727,18.370103 c -2.507622,-2.4e-5 -4.540545,1.256236 -4.540812,2.80603 -1.93e-4,1.549996 2.032862,2.806571 4.540812,2.806547 0,0 11.79092,2.4e-5 14.29886,0 2.50795,2.4e-5 4.541,-1.256551 4.54081,-2.806547 -2.6e-4,-1.549794 -1.26932,-2.80603 -4.54081,-2.80603 -3.27148,0 -3.7358,2.53575 -7.48076,2.80603 -3.74497,0.27028 -2.80688,-2.730722 -6.8181,-2.80603 z"/>
</path>
<path d="m11.551 31.21c3.3 2.1509 7.9639 2.0248 10.29 2.0248s7.5338-0.22077 10.29-2.0248c-3.0849 3.0849-7.7318 3.4729-10.223 3.4729s-8.1556-0.25795-10.357-3.4729zm11.551 29.462c4.245 2.9069 7.5011 3.7729 10.489 3.7729s5.8881-1.0218 10.091-3.7729c-2.5984 3.8946-6.9759 5.221-10.223 5.221s-7.8722-1.3919-10.357-5.221z" fill="#fff" fill-rule="evenodd" stroke="#2e1700" stroke-linecap="round" stroke-linejoin="round" stroke-width="1.5875">
<animate fill="freeze" attributeName="d" begin="smileyFace.click" dur=".5s" values="m 11.55084,31.209854 c 3.300047,2.150915 7.963857,2.02479 10.289877,2.02479 2.32602,0 7.5338,-0.220774 10.28988,-2.02479 -3.08487,3.084873 -7.73184,3.472867 -10.22306,3.472867 -2.49122,0 -8.155642,-0.257947 -10.356697,-3.472867 z; m 11.55084,29.461714 c 4.244987,2.906867 7.501147,3.77293 10.488627,3.77293 2.98748,0 5.88812,-1.021818 10.09113,-3.77293 -2.59839,3.894591 -6.97589,5.221007 -10.22306,5.221007 -3.24717,0 -7.87216,-1.391876 -10.356697,-5.221007 z;m 9.746771,27.929663 c 4.244986,2.906867 7.567976,4.317363 12.292696,4.240651 4.72472,-0.07671 7.82582,-1.489539 12.02883,-4.240651 -2.59839,3.894591 -6.50816,7.225528 -12.16076,7.225528 -5.6526,0 -9.676231,-3.396397 -12.160766,-7.225528 z; m 8.51835,25.590267 c 4.560415,2.699213 8.630126,4.085084 13.534447,4.085084 4.904321,0 8.355144,-1.230871 13.24392,-4.085084 -2.005739,6.401631 -6.464266,10.767807 -13.38918,10.767807 -6.924914,0 -11.483833,-4.6164 -13.389187,-10.767807 z"/>
</path>
<path d="m14.857 13.711a4.3716 7.474 35.247 0 1 -7.8834 3.581 4.3716 7.474 35.247 0 1 0.74308 -8.6267 4.3716 7.474 35.247 0 1 7.8834 -3.581 4.3716 7.474 35.247 0 1 -0.74308 8.6267z" fill="url(#b)" filter="url(#a)"/>
<path d="m32.958 4.3621a26.564 26.564 0 0 1 1.1784 7.7389 26.564 26.564 0 0 1 -25.251 26.517 21.013 21.013 0 0 0 13.357 4.8042 21.013 21.013 0 0 0 21.013 -21.013 21.013 21.013 0 0 0 -10.297 -18.047z" fill="#431212" filter="url(#a)" opacity=".2"/>
</svg>
